<?xml version="1.0" encoding="utf-8"?>
<!-- Generator: Adobe Illustrator 26.0.2, SVG Export Plug-In . SVG Version: 6.00 Build 0)  -->
<svg version="1.1" id="Calque_1" xmlns="http://www.w3.org/2000/svg" xmlns:xlink="http://www.w3.org/1999/xlink" x="0px" y="0px"
	 viewBox="0 0 595.3 841.9" style="enable-background:new 0 0 595.3 841.9;" xml:space="preserve">
<g>
	<path d="M299.4,471.4c-56.6,0.4-103.5-45.8-104.4-102.8c-0.9-57,46.1-104.6,103.5-105.1c56.9-0.4,104.7,47.2,104.4,104.2
		C402.8,424.5,356.3,471,299.4,471.4z M298.6,283.3c-46.3,0.2-84.2,38.7-83.8,85c0.4,45.7,38.3,83.4,84,83.5
		c46.3,0.1,84.5-38,84.5-84.4C383.2,321.1,345,283.1,298.6,283.3z"/>
	<path d="M349.9,417.2c-5.1,1.7-10.2,3.4-14.8,5c-25.4-25.6-48.6-25.7-70.8-0.6c-2.2-0.4-4.9-0.8-7.5-1.5c-2.7-0.7-5.2-1.8-7.8-2.7
		c3.1-18.4,20.9-32,43.1-33.5C321.7,381.9,342.1,393.2,349.9,417.2z"/>
	<path d="M264.6,365.4c-3.8,3.1-7,5.7-11.5,9.3c-3.8-4.4-7.3-8.5-11.5-13.3c2.5-3.4,5.2-7,8.3-11.1c-2.9-3.6-5.6-7.1-9.7-12.3
		c4.2-4.1,8.1-7.9,12.4-12.1c4.9,3.9,8.4,6.7,12.4,9.8c3.4-3,6.6-5.7,10.9-9.4c4.1,3.8,8.1,7.5,12.8,11.9c-3,4-5.6,7.6-8.8,12
		c2.5,3.3,5.2,6.9,8.7,11.6c-3.7,3.9-7.4,7.8-11.7,12.4C272.7,371.3,269.1,368.6,264.6,365.4z"/>
	<path d="M347.9,350.5c2.9,3.4,5.5,6.6,9.2,11c-3.8,4.1-7.4,8-11.8,12.8c-4-2.9-7.6-5.6-11.9-8.8c-3.3,2.5-7,5.2-11.6,8.6
		c-3.9-3.7-7.8-7.4-12.4-11.7c3-4.2,5.6-7.8,8.9-12.2c-2.6-3.3-5.4-6.8-9.4-11.6c4.4-3.7,8.5-7.2,13.4-11.3
		c3.3,2.5,6.9,5.1,11.1,8.2c3.4-2.7,6.9-5.5,11.7-9.3c4,4.3,7.7,8.3,11.9,12.8C353.7,343,351,346.6,347.9,350.5z"/>
</g>
</svg>
