<?xml version="1.0" encoding="utf-8"?>
<!-- Generator: Adobe Illustrator 26.0.2, SVG Export Plug-In . SVG Version: 6.00 Build 0)  -->
<svg version="1.1" id="Calque_1" xmlns="http://www.w3.org/2000/svg" xmlns:xlink="http://www.w3.org/1999/xlink" x="0px" y="0px"
	 viewBox="0 0 16 16" style="enable-background:new 0 0 16 16;" xml:space="preserve">
<style type="text/css">
	.st0{fill:#283891;}
</style>
<path class="st0" d="M0,4c0-1.1,0.9-2,2-2h12c1.1,0,2,0.9,2,2v8c0,1.1-0.9,2-2,2H2c-1.1,0-2-0.9-2-2V4z M2,3C1.4,3,1,3.4,1,4v0.2
	l7,4.2l7-4.2V4c0-0.6-0.4-1-1-1H2z M15,5.4l-4.7,2.8l4.7,2.9V5.4z M15,12.3L9.3,8.8L8,9.6L6.7,8.8L1,12.3C1.2,12.7,1.5,13,2,13h12
	C14.5,13,14.8,12.7,15,12.3z M1,11.1l4.7-2.9L1,5.4V11.1z"/>
</svg>
