<?xml version="1.0" encoding="utf-8"?>
<!-- Generator: Adobe Illustrator 26.0.2, SVG Export Plug-In . SVG Version: 6.00 Build 0)  -->
<svg version="1.1" id="Calque_1" focusable="false" xmlns="http://www.w3.org/2000/svg" xmlns:xlink="http://www.w3.org/1999/xlink"
	 x="0px" y="0px" viewBox="0 0 512 512" style="enable-background:new 0 0 512 512;" xml:space="preserve">
<style type="text/css">
	.st0{fill:#283891;}
</style>
<path class="st0" d="M176,216h160c8.8,0,16-7.2,16-16v-16c0-8.8-7.2-16-16-16H176c-8.8,0-16,7.2-16,16v16
	C160,208.8,167.2,216,176,216z M160,296c0,8.8,7.2,16,16,16h160c8.8,0,16-7.2,16-16v-16c0-8.8-7.2-16-16-16H176c-8.8,0-16,7.2-16,16
	V296z M256,417.1c-16.4,0-32.8-5.1-46.9-15.2L0,250.9V464c0,26.5,21.5,48,48,48h416c26.5,0,48-21.5,48-48V250.9L302.9,401.9
	C288.8,412.1,272.4,417.1,256,417.1L256,417.1z M493.6,162.9c-8.9-6.9-17.2-13.5-29.6-22.8V96c0-26.5-21.5-48-48-48h-77.5
	c-3-2.2-5.9-4.3-9-6.6C312.6,29.2,279.2-0.4,256,0c-23.2-0.3-56.6,29.2-73.4,41.4c-3.2,2.3-6,4.4-9,6.6H96c-26.5,0-48,21.5-48,48
	v44.1c-12.4,9.3-20.8,15.9-29.6,22.8C6.8,172,0,186,0,200.7v10.6l96,69.4V96h320v184.7l96-69.4v-10.6C512,186,505.2,172,493.6,162.9
	L493.6,162.9z"/>
</svg>
