<?xml version="1.0" encoding="utf-8"?>
<!-- Generator: Adobe Illustrator 26.0.2, SVG Export Plug-In . SVG Version: 6.00 Build 0)  -->
<svg version="1.1" id="Calque_1" xmlns="http://www.w3.org/2000/svg" xmlns:xlink="http://www.w3.org/1999/xlink" x="0px" y="0px"
	 viewBox="0 0 288 288" style="enable-background:new 0 0 288 288;" xml:space="preserve">
<style type="text/css">
	.st0{fill:#D5DA2E;}
	.st1{fill:#F1F5ED;stroke:#47AE4C;stroke-width:4.0666;stroke-miterlimit:10;}
	.st2{fill:#9CCC94;}
	.st3{fill:none;stroke:#47AE4C;stroke-width:4.0502;stroke-miterlimit:10;}
	.st4{fill:#F1F5ED;stroke:#47AE4C;stroke-width:4.1723;stroke-linecap:square;stroke-miterlimit:10;}
	.st5{fill:none;stroke:#47AE4C;stroke-width:4.1723;stroke-miterlimit:10;}
	.st6{fill:none;stroke:#47AE4C;stroke-width:4.3068;stroke-linecap:round;stroke-miterlimit:10;}
</style>
<g>
	<path class="st0" d="M139.8,53.5c3.9-3.7,7.3-5.8,11.7-8.5c11.1-7,20.4-10.1,22.4-10.8c6.9-2.3,12-3.9,18.9-3.8
		c1.9,0,10,0.3,21.1,5.7c4.9,2.4,14.8,7.9,27.5,22.9c14.9,17.7,21.9,34.7,26.2,45.4c3.3,8.3,8.6,23.1,11.7,42.2
		c1.3,8.2,3.3,20.7,2.2,37.2c-0.9,15.3-1.7,26.7-9.2,39.1c-7.6,12.5-17.8,18.6-19.9,19.9c-4.2,2.4-12.5,6.6-23.6,7.3
		c-3.8,0.3-6.2-0.1-27.5-4.8c-9.8-2.2-19.9-3.9-29.6-6.3c-8.1-1.9-12.3-3.2-18.9-2.8c-2.7,0.2-6.2,0.6-15.8,3.5
		c-10.6,3.2-13.4,4.8-22.4,7.8c-3.8,1.3-14.4,4.8-28,7.6c-7.5,1.5-13.5,2.7-21.8,2.8c-6.4,0.1-11.8,0.2-18.6-1.9
		c-4-1.3-10.3-3.8-16.4-8.8c-1.8-1.5-6.8-6-12-15.1c-2.2-3.9-7-13.4-9.8-32.8c-2.4-16.6-1.8-29.5-1.3-38.1c0.8-15.4,3-25.5,6.6-42.9
		c3-14.2,5.3-21.5,10.8-29c6.3-8.7,12.4-11.3,14.2-12c5.6-2.2,10.3-1.8,16.7-1.3C65.6,77,68.2,79.5,83.7,83
		c9.8,2.2,14.8,3.3,19.5,2.5c10.8-1.8,18-8.9,20.8-11.7C132,66.3,130.6,62.1,139.8,53.5z"/>
	<path class="st1" d="M224.7,237.4H69.2c-7.1,0-12.8-5.8-12.8-12.8V120.2c0-7.1,5.8-12.8,12.8-12.8h155.5c7.1,0,12.8,5.8,12.8,12.8
		v104.4C237.5,231.7,231.7,237.4,224.7,237.4z"/>
	<g>
		<path class="st2" d="M193.1,237.4H68.5c-6.7,0-12.1-6.7-12.1-15v-5.1c1.4,5.6,5.2,9.2,10,9.6l1.3,0.1h126.8"/>
		<path class="st2" d="M100.7,237.4h124.7c6.7,0,12.1-6.7,12.1-15v-5.1c-1.4,5.6-5.2,9.2-10,9.6l-1.3,0.1H99.4"/>
	</g>
	<path class="st3" d="M223.9,237.4h-154c-7.1,0-12.8-5.8-12.8-12.8V120.2c0-7.1,5.8-12.8,12.8-12.8h154c7.1,0,12.8,5.8,12.8,12.8
		v104.4C236.7,231.7,231,237.4,223.9,237.4z"/>
	<polyline class="st3" points="236,119.3 166,175.5 235.1,231.6 	"/>
	<g>
		<path class="st4" d="M166.4,175.2c10.3-8.4,20.7-16.8,31-25.2c9.7-7.8,19.4-15.8,29-23.6V77.5c0-9.3-7.5-16.7-16.7-16.7H84.2
			c-9.3,0-16.7,7.5-16.7,16.7v48.9"/>
		<g>
			<line class="st5" x1="89.8" y1="83.8" x2="204" y2="83.8"/>
			<line class="st5" x1="89.8" y1="105.9" x2="204" y2="105.9"/>
			<line class="st5" x1="89.8" y1="127.9" x2="204" y2="127.9"/>
			<line class="st5" x1="197.7" y1="150" x2="95.4" y2="150"/>
		</g>
	</g>
	<path class="st6" d="M128.1,174.4c2.7-2.1,6.4-3.9,8.7-4.7c5-1.8,9.3-1.6,10.3-1.6c3.8,0.2,7.4,1.3,10.9,2.8
		c1.8,0.8,3.5,1.6,5.2,2.5c1.3,0.8,3.3,1.5,4.1,2.9"/>
	<polyline class="st3" points="57.5,119.3 126.9,175.5 57.5,231.6 	"/>
	<path class="st2" d="M65.4,110.5v12.7l-6.1-5c0,0,0.4-1.5,0.7-2c0.2-0.4,0.6-1.3,0.8-1.7c0.3-0.4,0.8-1.2,1.2-1.5
		c0.3-0.4,1.2-1.1,1.6-1.4c0.3-0.2,0.8-0.6,1-0.8C64.6,110.8,65.4,110.5,65.4,110.5z"/>
	<path class="st2" d="M228.6,110.5v12.7l6.1-5c0,0-0.4-1.5-0.7-2c-0.2-0.4-0.6-1.3-0.8-1.7c-0.3-0.4-0.8-1.2-1.2-1.5
		c-0.3-0.4-1.2-1.1-1.6-1.4c-0.3-0.2-0.8-0.6-1-0.8C229.4,110.8,228.6,110.5,228.6,110.5z"/>
</g>
</svg>
